<svg xmlns="http://www.w3.org/2000/svg" width="80" height="80" fill="none"><path fill="#29313C" d="M68.517 20.21v-1.117h1.925v-8.517H63.05v8.517h1.116v1.117H57.262v-1.117h4.67v-8.517H51.772v8.517h1.652v1.117H51.77v8.493h-1.117v-.82H36.404v-1.118h14.252V10.576H30.387v16.178h2.745v1.117H26.8v-3.044h2.473v-14.25H9.506v16.177h14.308v1.117h-.843v.82h-1.117v-.82H9.518v10.431h12.349v-5.768h1.116v6.886H9.518v19.768h20.836V36.41h-3.27v-1.117h23.57v-2.748h1.117v2.748h1.116v1.117H31.47v22.778h26.908v2.508H48.217v6.829h17.84v-6.829h-3.84v-2.508h8.237V36.41H58.64v-1.117h11.802V24.86h2.507v36.835h-6.346V69.072H47.658V61.696H7V8.068h65.949v12.689h-2.507v-.547h-1.925Z"/><path fill="#29313C" fill-rule="evenodd" d="M70.545 36.398H67.253v9.337h.137v.137h3.018v-.136h.137v-9.338Zm-.137 9.337H67.39v-9.2h3.02v9.2Zm0 3.158H67.39v.137h-.136v4.429h3.292V49.03h-.137v-.137Zm0 .137H67.39v4.292h3.02V49.03Zm-1.241-.969c0-.137.057-.25.136-.342a.463.463 0 0 1 .342-.137c.137 0 .25.057.342.137a.464.464 0 0 1 .137.342c0 .137-.057.251-.137.342a.463.463 0 0 1-.342.137.513.513 0 0 1-.342-.137.514.514 0 0 1-.136-.342Zm.136 0c0-.091.046-.182.103-.24a.31.31 0 0 1 .24-.102c.09 0 .181.046.238.103a.31.31 0 0 1 .103.24.356.356 0 0 1-.103.239.31.31 0 0 1-.239.102.355.355 0 0 1-.24-.102.31.31 0 0 1-.102-.24Zm-1.629 0c0-.137.057-.25.137-.342a.464.464 0 0 1 .342-.137c.136 0 .25.057.341.137a.464.464 0 0 1 .137.342c0 .137-.057.251-.136.342a.463.463 0 0 1-.342.137.513.513 0 0 1-.342-.137.514.514 0 0 1-.137-.342Zm.137 0c0-.091.046-.182.103-.24a.31.31 0 0 1 .239-.102c.09 0 .182.046.239.103a.31.31 0 0 1 .103.24.355.355 0 0 1-.103.239.31.31 0 0 1-.24.102.355.355 0 0 1-.238-.102.31.31 0 0 1-.103-.24Zm1.356-1.368c0-.137.057-.25.136-.342a.463.463 0 0 1 .342-.137c.137 0 .25.057.342.137a.464.464 0 0 1 .137.342c0 .137-.057.25-.137.342a.463.463 0 0 1-.342.137.513.513 0 0 1-.342-.137.514.514 0 0 1-.136-.342Zm.136 0c0-.091.046-.182.103-.24a.31.31 0 0 1 .24-.102c.09 0 .181.046.238.103a.31.31 0 0 1 .103.24.356.356 0 0 1-.103.238.31.31 0 0 1-.239.103.355.355 0 0 1-.24-.102.31.31 0 0 1-.102-.24Zm-1.629 0c0-.137.057-.25.137-.342a.464.464 0 0 1 .342-.137c.136 0 .25.057.341.137a.464.464 0 0 1 .137.342c0 .137-.057.25-.136.342a.463.463 0 0 1-.342.137.513.513 0 0 1-.342-.137.514.514 0 0 1-.137-.342Zm.137 0c0-.091.046-.182.103-.24a.31.31 0 0 1 .239-.102c.09 0 .182.046.239.103a.31.31 0 0 1 .103.24.355.355 0 0 1-.103.238.31.31 0 0 1-.24.103.355.355 0 0 1-.238-.102.31.31 0 0 1-.103-.24ZM61.935 14.122h-2.563c-.273 0-.535-.114-.717-.297a1.007 1.007 0 0 1-.297-.718c0-.274.114-.536.297-.718.182-.183.432-.297.717-.297h2.563V14.122Zm-3.19-1.653a.905.905 0 0 0 0 1.276c.16.16.388.263.639.263h2.449v-1.802h-2.45a.904.904 0 0 0-.637.263Zm2.063 1.539h.114v-1.802h-.114v1.802ZM61.935 14.902h-.934c-.467 0-.888.183-1.196.49a1.61 1.61 0 0 0-.501 1.163c0 .456.194.867.501 1.163.308.297.73.479 1.196.479h.934v-3.295Zm-.934 3.158c-.432 0-.82-.17-1.105-.444a1.479 1.479 0 0 1-.455-1.084c0-.421.17-.798.455-1.071a1.587 1.587 0 0 1 1.105-.445h.81v3.044H61Zm.217-.216h-.262c-.353 0-.672-.137-.912-.365a1.243 1.243 0 0 1-.375-.878v-.091c0-.342.148-.65.375-.878.228-.228.547-.365.912-.365h.262v2.576Zm-1.413-1.334c0-.308.137-.582.342-.787.205-.205.49-.33.809-.33h.125v2.325h-.125c-.308 0-.604-.125-.809-.33a1.05 1.05 0 0 1-.342-.787v-.091Zm1.063.058c0 .114-.08.195-.189.195a.2.2 0 0 1-.198-.195c0-.102.09-.186.198-.186.11 0 .189.073.189.186Zm-.189.106c-.061 0-.107-.04-.107-.106 0-.065.058-.104.107-.104.05 0 .108.037.108.104s-.046.106-.108.106ZM14.735 38.314v-2.565c0-.274.114-.536.296-.718.183-.183.433-.297.718-.297.274 0 .536.114.718.297.182.182.296.433.296.718v2.565h-2.028Zm1.652-3.192a.903.903 0 0 0-1.538.638v1.425h1.8V35.76a.905.905 0 0 0-.262-.638Zm.262 2.177h-1.8v.912h1.8V37.3ZM21 38.314v-.935c0-.468-.181-.89-.489-1.197a1.609 1.609 0 0 0-1.162-.502c-.456 0-.866.194-1.162.502-.296.308-.478.73-.478 1.197v.935H21Zm-3.155-.935c0-.433.171-.82.445-1.106.273-.285.649-.456 1.082-.456.421 0 .797.171 1.07.456.274.285.445.673.445 1.106v.81h-3.042v-.81Zm.217.217v-.263c0-.353.136-.672.364-.912.228-.228.536-.376.878-.376h.09c.342 0 .65.148.878.376.228.228.364.547.364.912v.263h-2.574Zm1.333-1.414c.307 0 .58.137.786.342.205.205.33.49.33.81v.125h-2.324v-.126c0-.307.125-.604.33-.81.194-.216.479-.341.787-.341h.09Zm-.059 1.063c-.113 0-.194-.08-.194-.188a.2.2 0 0 1 .194-.2c.103 0 .187.09.187.2 0 .109-.073.188-.187.188Zm-.105-.188c0-.062.04-.108.105-.108s.104.059.104.108-.037.107-.104.107-.105-.046-.105-.107ZM12.81 27.882H9.518V34.974h3.292v-7.092Zm-.103.092v6.908H9.61v-6.908h3.098Zm-2.836 5.438v-3.945c0-.353.137-.638.353-.844.24-.216.558-.33.923-.33.364 0 .695.114.922.33.217.206.354.49.354.844v3.945c0 .353-.137.638-.354.843-.239.217-.558.33-.922.33-.365 0-.695-.113-.923-.33a1.132 1.132 0 0 1-.353-.843Zm2.472 0c0 .33-.125.592-.33.775-.217.194-.524.296-.866.308-.342 0-.65-.114-.866-.308a1.02 1.02 0 0 1-.33-.775v-3.945c0-.33.125-.593.33-.775.216-.205.524-.308.866-.308.341 0 .65.114.866.308.205.194.33.444.33.775v3.945Zm-1.203.449c-.113 0-.194-.08-.194-.189 0-.108.092-.199.194-.199.103 0 .187.09.187.199 0 .109-.073.189-.187.189Zm-.105-.189c0-.061.04-.108.105-.108s.104.06.104.108c0 .049-.037.108-.104.108s-.105-.047-.105-.108Z" clip-rule="evenodd"/><path fill="#fff" d="M53.48 59.245h4.83v2.394h-4.83v-2.394Z"/><path fill="#171924" fill-rule="evenodd" d="M53.411 61.696v-2.508h4.944v2.508h-4.944Zm.114-.114h4.717v-2.28h-4.717v2.28Z" clip-rule="evenodd"/><path fill="#171924" d="M53.423 59.94h4.944v.137h-4.944z"/><path fill="#fff" d="M33.726 59.245h8.122v2.394h-8.122v-2.394Z"/><path fill="#171924" fill-rule="evenodd" d="M33.657 61.696v-2.508h8.237v2.508h-8.236Zm.114-.114h8.009v-2.28h-8.009v2.28Z" clip-rule="evenodd"/><path fill="#171924" d="M33.669 59.94h8.236v.137h-8.236z"/><path fill="#fff" d="M14.234 59.245h8.123v2.394h-8.123v-2.394Z"/><path fill="#171924" fill-rule="evenodd" d="M14.177 61.696v-2.508h8.236v2.508h-8.236Zm.114-.114H22.3v-2.28h-8.01v2.28Z" clip-rule="evenodd"/><path fill="#171924" d="M14.177 59.94h8.236v.137h-8.236z"/><path fill="#fff" d="M14.234 8.125h8.123v2.395h-8.123V8.125Z"/><path fill="#171924" fill-rule="evenodd" d="M14.177 10.576V8.069h8.236v2.508h-8.236Zm.114-.114H22.3v-2.28h-8.01v2.28Z" clip-rule="evenodd"/><path fill="#171924" d="M14.177 9.687h8.236v.137h-8.236z"/><path fill="#fff" d="M33.726 8.125h8.122v2.395h-8.122V8.125Z"/><path fill="#171924" fill-rule="evenodd" d="M33.657 10.576V8.069h8.237v2.508h-8.236Zm.114-.114h8.009v-2.28h-8.009v2.28Z" clip-rule="evenodd"/><path fill="#171924" d="M33.669 9.687h8.236v.137h-8.236z"/><path fill="#fff" d="M54.3 8.125h5.924v2.395H54.3V8.125Z"/><path fill="#171924" fill-rule="evenodd" d="M54.243 10.576V8.069h6.038v2.508h-6.038Zm.114-.114h5.81v-2.28h-5.81v2.28Z" clip-rule="evenodd"/><path fill="#171924" d="M54.243 9.687h6.038v.137h-6.038z"/><path fill="#0B1739" fill-opacity=".2" d="M15.271 66.415c.953 1.452.4 3.33-1.226 4.17-1.621.853-3.721.357-4.662-1.1-.956-1.457-.4-3.324 1.23-4.166 1.621-.852 3.72-.358 4.658 1.096Z" opacity=".2"/><path fill="red" fill-rule="evenodd" d="m12.698 68.614-2.754.446 1.82-1.876 2.746-.456-1.812 1.886Zm-.725-1.106-1.316 1.206 1.846-.42-.53-.786Z" clip-rule="evenodd"/><path fill="#0B1739" fill-rule="evenodd" d="m12.698 68.614-2.754.446 1.82-1.876 2.746-.456-1.812 1.886Zm-.725-1.106-1.316 1.206 1.846-.42-.53-.786Z" clip-rule="evenodd"/><path fill="red" fill-rule="evenodd" d="M7.722 71.041a.843.843 0 0 1-.37-.08.633.633 0 0 1-.258-.218.553.553 0 0 1-.094-.315.55.55 0 0 1 .095-.315.64.64 0 0 1 .26-.22.842.842 0 0 1 .369-.079.86.86 0 0 1 .303.052.619.619 0 0 1 .231.148l-.162.134a.503.503 0 0 0-.36-.14.56.56 0 0 0-.25.054.417.417 0 0 0-.171.15.39.39 0 0 0-.062.216c0 .08.02.153.062.216a.417.417 0 0 0 .171.15.56.56 0 0 0 .25.053.5.5 0 0 0 .36-.141l.162.136a.62.62 0 0 1-.232.148.868.868 0 0 1-.304.051Z" clip-rule="evenodd"/><path fill="#0B1739" fill-rule="evenodd" d="M7.722 71.041a.843.843 0 0 1-.37-.08.633.633 0 0 1-.258-.218.553.553 0 0 1-.094-.315.55.55 0 0 1 .095-.315.64.64 0 0 1 .26-.22.842.842 0 0 1 .369-.079.86.86 0 0 1 .303.052.619.619 0 0 1 .231.148l-.162.134a.503.503 0 0 0-.36-.14.56.56 0 0 0-.25.054.417.417 0 0 0-.171.15.39.39 0 0 0-.062.216c0 .08.02.153.062.216a.417.417 0 0 0 .171.15.56.56 0 0 0 .25.053.5.5 0 0 0 .36-.141l.162.136a.62.62 0 0 1-.232.148.868.868 0 0 1-.304.051Z" clip-rule="evenodd"/><path fill="red" fill-rule="evenodd" d="M17.43 64.903c.133 0 .252.027.358.08a.62.62 0 0 1 .25.218c.06.094.09.199.09.316 0 .117-.03.222-.09.315a.62.62 0 0 1-.25.219.792.792 0 0 1-.358.079.806.806 0 0 1-.33-.067.64.64 0 0 1-.246-.185.561.561 0 0 1-.119-.271h-.212v.506h-.247V64.92h.247v.49h.216a.564.564 0 0 1 .123-.264.641.641 0 0 1 .243-.179.81.81 0 0 1 .325-.064Zm0 1.033c.084 0 .16-.018.228-.053a.395.395 0 0 0 .218-.367.396.396 0 0 0-.218-.366.489.489 0 0 0-.228-.053.483.483 0 0 0-.227.053.404.404 0 0 0-.219.366.407.407 0 0 0 .22.367.483.483 0 0 0 .226.053Z" clip-rule="evenodd"/><path fill="#0B1739" fill-rule="evenodd" d="M17.43 64.903c.133 0 .252.027.358.08a.62.62 0 0 1 .25.218c.06.094.09.199.09.316 0 .117-.03.222-.09.315a.62.62 0 0 1-.25.219.792.792 0 0 1-.358.079.806.806 0 0 1-.33-.067.64.64 0 0 1-.246-.185.561.561 0 0 1-.119-.271h-.212v.506h-.247V64.92h.247v.49h.216a.564.564 0 0 1 .123-.264.641.641 0 0 1 .243-.179.81.81 0 0 1 .325-.064Zm0 1.033c.084 0 .16-.018.228-.053a.395.395 0 0 0 .218-.367.396.396 0 0 0-.218-.366.489.489 0 0 0-.228-.053.483.483 0 0 0-.227.053.404.404 0 0 0-.219.366.407.407 0 0 0 .22.367.483.483 0 0 0 .226.053Z" clip-rule="evenodd"/><path fill="#29313C" d="M60.312 65.814h.903v.173l-.508 1.233h-.205l.513-1.233h-.703v-.173Zm1.129 1.195h.204l-.158.512h-.143l.097-.512Zm.975.227a.536.536 0 0 1-.2-.036.368.368 0 0 1-.151-.115.583.583 0 0 1-.097-.204 1.188 1.188 0 0 1-.034-.306v-.116c0-.118.012-.218.034-.301a.562.562 0 0 1 .097-.205.377.377 0 0 1 .152-.117.505.505 0 0 1 .2-.038.52.52 0 0 1 .198.036.36.36 0 0 1 .152.117c.042.052.074.12.097.205.023.083.034.184.034.303v.116c0 .118-.011.22-.034.303a.563.563 0 0 1-.098.205.382.382 0 0 1-.153.117.515.515 0 0 1-.197.036Zm0-.18a.302.302 0 0 0 .119-.023.211.211 0 0 0 .09-.078.455.455 0 0 0 .056-.149c.014-.061.02-.138.02-.23v-.117c0-.093-.006-.169-.02-.23a.423.423 0 0 0-.058-.148.194.194 0 0 0-.09-.078.274.274 0 0 0-.117-.024.293.293 0 0 0-.12.024.196.196 0 0 0-.089.078.43.43 0 0 0-.056.147c-.013.061-.02.138-.02.23v.117c0 .093.007.17.02.231.013.06.032.11.056.147a.223.223 0 0 0 .09.08.312.312 0 0 0 .12.022Zm.681-1.039.293-.203h.189v1.406h-.189v-1.197l-.293.199v-.205Z"/><path fill="red" d="M41.739 49.692v2.81h-.398v-2.46h-.634v-.35h1.032Zm1.542 0v2.81h-.398v-2.46h-.635v-.35h1.033Zm2.389 1.337c.16.062.283.15.37.265a.673.673 0 0 1 .128.414.733.733 0 0 1-.137.442.867.867 0 0 1-.39.285c-.168.067-.366.1-.594.1-.225 0-.422-.033-.59-.1a.87.87 0 0 1-.386-.285.734.734 0 0 1-.136-.442c0-.16.041-.299.124-.414a.805.805 0 0 1 .37-.265.703.703 0 0 1-.294-.245.642.642 0 0 1-.1-.361c0-.156.042-.29.125-.406a.81.81 0 0 1 .357-.265c.153-.062.33-.092.53-.092.204 0 .382.03.534.092.155.061.275.15.358.265a.66.66 0 0 1 .128.406.637.637 0 0 1-.104.361.704.704 0 0 1-.293.245Zm-.623-1.044c-.19 0-.34.041-.45.124a.386.386 0 0 0-.164.33c0 .139.053.249.16.329.11.08.261.12.454.12.196 0 .348-.04.458-.12a.383.383 0 0 0 .169-.33.38.38 0 0 0-.173-.329c-.112-.083-.264-.124-.454-.124Zm0 2.225c.222 0 .398-.046.526-.137a.444.444 0 0 0 .193-.377.42.42 0 0 0-.193-.366c-.128-.09-.304-.136-.526-.136-.222 0-.396.045-.522.136a.423.423 0 0 0-.189.366c0 .158.063.284.189.377.126.091.3.137.522.137Zm1.852-.233c.075 0 .136.027.184.08.051.051.077.115.077.193 0 .04-.005.079-.016.116a1.7 1.7 0 0 1-.052.173l-.19.558h-.252l.148-.598a.267.267 0 0 1-.124-.093.281.281 0 0 1-.044-.156c0-.08.025-.146.076-.197a.262.262 0 0 1 .193-.076Zm1.516-2.285v2.81h-.397v-2.46h-.635v-.35h1.032Zm1.542 0v2.81h-.398v-2.46h-.634v-.35h1.032Z"/><path fill="#0B1739" d="M41.739 49.692v2.81h-.398v-2.46h-.634v-.35h1.032Zm1.542 0v2.81h-.398v-2.46h-.635v-.35h1.033Zm2.389 1.337c.16.062.283.15.37.265a.673.673 0 0 1 .128.414.733.733 0 0 1-.137.442.867.867 0 0 1-.39.285c-.168.067-.366.1-.594.1-.225 0-.422-.033-.59-.1a.87.87 0 0 1-.386-.285.734.734 0 0 1-.136-.442c0-.16.041-.299.124-.414a.805.805 0 0 1 .37-.265.703.703 0 0 1-.294-.245.642.642 0 0 1-.1-.361c0-.156.042-.29.125-.406a.81.81 0 0 1 .357-.265c.153-.062.33-.092.53-.092.204 0 .382.03.534.092.155.061.275.15.358.265a.66.66 0 0 1 .128.406.637.637 0 0 1-.104.361.704.704 0 0 1-.293.245Zm-.623-1.044c-.19 0-.34.041-.45.124a.386.386 0 0 0-.164.33c0 .139.053.249.16.329.11.08.261.12.454.12.196 0 .348-.04.458-.12a.383.383 0 0 0 .169-.33.38.38 0 0 0-.173-.329c-.112-.083-.264-.124-.454-.124Zm0 2.225c.222 0 .398-.046.526-.137a.444.444 0 0 0 .193-.377.42.42 0 0 0-.193-.366c-.128-.09-.304-.136-.526-.136-.222 0-.396.045-.522.136a.423.423 0 0 0-.189.366c0 .158.063.284.189.377.126.091.3.137.522.137Zm1.852-.233c.075 0 .136.027.184.08.051.051.077.115.077.193 0 .04-.005.079-.016.116a1.7 1.7 0 0 1-.052.173l-.19.558h-.252l.148-.598a.267.267 0 0 1-.124-.093.281.281 0 0 1-.044-.156c0-.08.025-.146.076-.197a.262.262 0 0 1 .193-.076Zm1.516-2.285v2.81h-.397v-2.46h-.635v-.35h1.032Zm1.542 0v2.81h-.398v-2.46h-.634v-.35h1.032Z"/><path fill="red" d="M42.43 48.044c-.394 0-.7-.105-.918-.316-.218-.214-.33-.517-.336-.909h.632c.007.231.062.4.166.507.104.104.256.156.457.156.207 0 .363-.047.467-.14a.504.504 0 0 0 .155-.387.466.466 0 0 0-.15-.357c-.097-.093-.243-.14-.437-.14h-.462v-.532h.462c.16 0 .286-.042.376-.126a.424.424 0 0 0 .136-.326.444.444 0 0 0-.14-.341c-.091-.088-.227-.131-.407-.131-.335 0-.517.187-.547.562h-.633c.007-.351.112-.626.316-.823.208-.2.496-.301.864-.301.194 0 .364.025.512.075a.99.99 0 0 1 .366.2.82.82 0 0 1 .226.317c.05.12.075.254.075.402 0 .16-.035.306-.105.436a.784.784 0 0 1-.326.317.867.867 0 0 1 .507.813c0 .154-.027.296-.08.427a.9.9 0 0 1-.242.331c-.103.09-.234.16-.391.21-.154.051-.335.076-.542.076Zm2.642-1.094h-.251v1.049h-.583v-2.51h.583v.949h.25l.603-.95h.673l-.793 1.186.893 1.325h-.703l-.672-1.05Z"/><path fill="#0B1739" d="M42.43 48.044c-.394 0-.7-.105-.918-.316-.218-.214-.33-.517-.336-.909h.632c.007.231.062.4.166.507.104.104.256.156.457.156.207 0 .363-.047.467-.14a.504.504 0 0 0 .155-.387.466.466 0 0 0-.15-.357c-.097-.093-.243-.14-.437-.14h-.462v-.532h.462c.16 0 .286-.042.376-.126a.424.424 0 0 0 .136-.326.444.444 0 0 0-.14-.341c-.091-.088-.227-.131-.407-.131-.335 0-.517.187-.547.562h-.633c.007-.351.112-.626.316-.823.208-.2.496-.301.864-.301.194 0 .364.025.512.075a.99.99 0 0 1 .366.2.82.82 0 0 1 .226.317c.05.12.075.254.075.402 0 .16-.035.306-.105.436a.784.784 0 0 1-.326.317.867.867 0 0 1 .507.813c0 .154-.027.296-.08.427a.9.9 0 0 1-.242.331c-.103.09-.234.16-.391.21-.154.051-.335.076-.542.076Zm2.642-1.094h-.251v1.049h-.583v-2.51h.583v.949h.25l.603-.95h.673l-.793 1.186.893 1.325h-.703l-.672-1.05Z"/><path fill="#29313C" fill-rule="evenodd" d="M70.482 33.067H58.687v2.254h11.795v-2.254Zm-11.663 2.122v-1.99h11.53v1.99H58.82Z" clip-rule="evenodd"/><path fill="#29313C" d="M59.88 34.26v-.132h9.542v.132H59.88Z"/><path fill="#29313C" d="M60.277 33.597h.133v1.326h-.133v-1.326ZM60.807 33.597h.133v1.326h-.133v-1.326ZM61.47 33.597h.132v1.326h-.132v-1.326ZM63.06 33.597h.133v1.326h-.133v-1.326ZM63.988 33.597h.132v1.326h-.132v-1.326ZM66.904 33.597h.132v1.326h-.132v-1.326ZM64.518 33.597h.133v1.326h-.133v-1.326ZM67.434 33.597h.132v1.326h-.132v-1.326ZM65.18 33.597h.133v1.326h-.132v-1.326ZM68.096 33.597h.133v1.326h-.133v-1.326ZM68.759 33.597h.133v1.326h-.133v-1.326ZM62.184 33.683l.128-.034.35 1.322-.128.033-.35-1.321ZM66.373 33.683l-.128-.034-.35 1.322.128.033.35-1.321Z"/><path fill="#29313C" fill-rule="evenodd" d="M28.275 36.228V48.03h2.253V36.228h-2.253Zm2.12.132V47.9h-1.987V36.36h1.987Z" clip-rule="evenodd"/><path fill="#29313C" d="M29.468 46.838h-.133v-9.55h.133v9.55Z"/><path fill="#29313C" d="M28.805 46.44v-.133h1.325v.133h-1.325ZM28.805 45.91v-.133h1.325v.133h-1.325ZM28.805 45.246v-.132h1.325v.132h-1.325ZM28.805 43.655v-.133h1.325v.133h-1.325ZM28.805 42.726v-.132h1.325v.132h-1.325ZM28.805 39.809v-.133h1.325v.133h-1.325ZM28.805 42.196v-.133h1.325v.133h-1.325ZM28.805 39.278v-.133h1.325v.133h-1.325ZM28.805 41.533V41.4h1.325v.133h-1.325ZM28.805 38.615v-.133h1.325v.133h-1.325ZM28.805 37.952v-.133h1.325v.133h-1.325ZM28.89 44.532l-.033-.129 1.32-.35.034.129-1.32.35ZM30.177 40.818l.034-.128-1.32-.35-.034.128 1.32.35Z"/><path fill="#29313C" fill-rule="evenodd" d="M30.325 19.671v7.162h2.253v-7.162h-2.253Zm2.12 7.03h-1.987v-6.897h1.988V26.7Z" clip-rule="evenodd"/><path fill="#29313C" d="M31.518 26.303h-.133v-5.836h.133v5.836Z"/><path fill="#29313C" d="M30.855 25.905v-.133h1.326v.133h-1.325ZM30.855 25.374v-.133h1.326v.133h-1.325ZM30.855 24.711v-.133h1.326v.133h-1.325ZM30.855 23.12v-.133h1.326v.133h-1.325ZM30.855 22.191v-.133h1.326v.133h-1.325ZM30.855 21.66v-.132h1.326v.133h-1.325ZM30.855 20.997v-.132h1.326v.133h-1.325ZM30.94 23.996l-.033-.128 1.32-.35.035.128-1.321.35Z"/><path fill="#29313C" fill-rule="evenodd" d="M9.518 26.833h7.157v-2.255H9.518v2.255Zm7.024-2.122v1.99H9.651v-1.99h6.891Z" clip-rule="evenodd"/><path fill="#29313C" d="M16.145 25.64v.132h-5.832v-.133h5.832Z"/><path fill="#29313C" d="M15.747 26.303h-.133v-1.327h.133v1.327ZM15.217 26.303h-.133v-1.327h.133v1.327ZM14.554 26.303h-.132v-1.327h.132v1.327ZM12.964 26.303h-.133v-1.327h.133v1.327ZM12.036 26.303h-.132v-1.327h.132v1.327ZM11.506 26.303h-.133v-1.327h.133v1.327ZM10.843 26.303h-.132v-1.327h.132v1.327ZM13.84 26.217l-.128.034-.35-1.322.128-.034.35 1.322Z"/><path fill="#29313C" fill-rule="evenodd" d="M62.928 12.775h7.687V10.52h-7.687v2.255Zm7.554-2.122v1.989H63.06v-1.99h7.422Z" clip-rule="evenodd"/><path fill="#29313C" d="M69.554 11.58v.134h-5.831v-.133h5.831Z"/><path fill="#29313C" d="M69.157 12.244h-.133v-1.326h.133v1.326ZM68.626 12.244h-.132v-1.326h.132v1.326ZM67.964 12.244h-.133v-1.326h.133v1.326ZM66.374 12.244h-.133v-1.326h.133v1.326ZM65.446 12.244h-.133v-1.326h.133v1.326ZM64.916 12.244h-.133v-1.326h.133v1.326ZM64.253 12.244h-.132v-1.326h.132v1.326ZM67.25 12.159l-.128.034-.35-1.322.128-.034.35 1.322Z"/><path fill="#29313C" fill-rule="evenodd" d="M70.75 19.089v-6.447h-2.253v6.447h2.253Zm-2.12-.133v-6.181h1.988v6.181H68.63Z" clip-rule="evenodd"/><path fill="#29313C" d="M69.558 13.52h.132v4.913h-.132V13.52Z"/><path fill="#29313C" d="M70.22 13.854v.133h-1.325v-.133h1.325ZM70.22 14.299v.132h-1.325V14.3h1.325ZM70.22 14.854v.133h-1.325v-.133h1.325ZM70.22 16.188v.133h-1.325v-.133h1.325ZM70.22 16.966v.133h-1.325v-.133h1.325ZM70.22 17.41v.134h-1.325v-.133h1.325ZM70.22 17.967v.132h-1.325v-.132h1.325ZM70.138 15.453l.029.13-1.323.293-.028-.13 1.322-.293Z"/><path fill="#29313C" fill-rule="evenodd" d="M62.795 20.202h-3.578v1.856h3.578v-1.856Zm-3.446 1.724v-1.592h3.314v1.592h-3.314ZM51.663 36.913h-9.807v1.724h9.807v-1.724Zm-.133 1.591h-9.542v-1.459h9.542v1.46Z" clip-rule="evenodd"/><path fill="#29313C" fill-rule="evenodd" d="M50.735 37.443h-8.084v.663h8.084v-.663Zm-.133.53h-7.819v-.397h7.82v.398ZM38.176 37.448l-3.27 1.457 1.24 2.786 3.27-1.457-1.24-2.786Zm1.064 2.719-3.027 1.349-1.132-2.544 3.028-1.35 1.131 2.545Z" clip-rule="evenodd"/><path fill="#29313C" fill-rule="evenodd" d="m38.176 37.448-3.27 1.457 1.24 2.786 3.27-1.457-1.24-2.786Zm1.064 2.719-3.027 1.349-1.132-2.544 3.028-1.35 1.131 2.545Z" clip-rule="evenodd"/><path fill="#29313C" fill-rule="evenodd" d="m38.781 37.178-4.48 1.997 1.24 2.786 4.48-1.997-1.24-2.786Zm1.065 2.719-4.238 1.889-1.132-2.544 4.238-1.889 1.132 2.544Z" clip-rule="evenodd"/><path fill="#29313C" fill-rule="evenodd" d="m38.176 37.448-3.27 1.456.432.97 3.269-1.457-.431-.97Zm.256.902-3.027 1.348-.323-.726 3.026-1.35.324.728ZM42.518 58.133h3.578v-3.05h-3.578v3.05Zm3.446-2.918V58H42.65v-2.785h3.313Z" clip-rule="evenodd"/><path fill="#29313C" fill-rule="evenodd" d="M42.518 58.133h3.578v-3.05h-3.578v3.05Zm3.446-2.918V58H42.65v-2.785h3.313Z" clip-rule="evenodd"/><path fill="#29313C" fill-rule="evenodd" d="M41.855 58.133h4.904v-3.05h-4.904v3.05Zm4.772-2.918V58h-4.639v-2.785h4.639Z" clip-rule="evenodd"/><path fill="#29313C" fill-rule="evenodd" d="M42.518 58.133h3.578v-1.06h-3.578v1.06Zm3.446-.928V58H42.65v-.796h3.313ZM33.241 51.502v3.58h3.048v-3.58h-3.048Zm2.916 3.448h-2.783v-3.316h2.783v3.316Z" clip-rule="evenodd"/><path fill="#29313C" fill-rule="evenodd" d="M33.241 48.053v3.581h3.048v-3.58h-3.048Zm2.916 3.449h-2.783v-3.316h2.783v3.316Z" clip-rule="evenodd"/><path fill="#29313C" fill-rule="evenodd" d="M33.241 44.605v3.581h3.048v-3.58h-3.048Zm2.916 3.448h-2.783v-3.315h2.783v3.315Z" clip-rule="evenodd"/><path fill="#29313C" fill-rule="evenodd" d="M33.241 44.605v10.478h3.048V44.605h-3.048Zm2.916 10.345h-2.783V44.738h2.783V54.95Z" clip-rule="evenodd"/><path fill="#29313C" fill-rule="evenodd" d="M33.241 43.942v11.804h3.048V43.942h-3.048Zm2.916 11.671h-2.783V44.075h2.783v11.538Z" clip-rule="evenodd"/><path fill="#29313C" fill-rule="evenodd" d="M33.241 51.502v3.58h1.06v-3.58h-1.06Zm.928 3.448h-.795v-3.316h.795v3.316Z" clip-rule="evenodd"/><path fill="#29313C" fill-rule="evenodd" d="M33.241 48.053v3.581h1.06v-3.58h-1.06Zm.928 3.449h-.795v-3.316h.795v3.316Z" clip-rule="evenodd"/><path fill="#29313C" fill-rule="evenodd" d="M33.241 44.605v3.581h1.06v-3.58h-1.06Zm.928 3.448h-.795v-3.315h.795v3.315ZM55.705 52.099a3.05 3.05 0 1 0 3.048-3.05 3.05 3.05 0 0 0-3.048 3.05Zm5.964 0a2.917 2.917 0 1 1-2.916-2.918 2.917 2.917 0 0 1 2.916 2.918ZM63.091 48.387l-1.525-1.474-1.289 1.336 1.526 1.474 1.288-1.336ZM61.8 49.535l-1.334-1.29 1.104-1.144 1.335 1.29-1.105 1.145ZM63.264 55.13l-1.525 1.473-1.197-1.24 1.43-1.382.096-.092 1.196 1.24Zm-1.292-1.149.188.003-.096.093-.092-.096Zm-1.242 1.385 1.334-1.29 1.013 1.05-1.335 1.29-1.012-1.05Z" clip-rule="evenodd"/><path fill="#29313C" fill-rule="evenodd" d="M63.988 52.96V50.84h-1.723v2.122h1.723Zm-1.59-1.989h1.457v1.857h-1.457v-1.857ZM53.12 53.516l.93 1.907 1.68-.82-.928-1.908-1.681.821Zm1.62-.643.814 1.668-1.443.705-.813-1.669 1.442-.704ZM33.506 15.825v2.122h1.87v-2.122h-1.87Zm1.737.133v1.856h-1.605v-1.856h1.605ZM33.506 12.111v2.122h1.87v-2.122h-1.87Zm1.737.133v1.857h-1.605v-1.857h1.605ZM56.996 57.182l2.1.295.221-1.576-2.1-.295-.22 1.576Zm2.172-1.168-.185 1.313-1.837-.258.184-1.313 1.838.258ZM12.699 57.072h-3.18v2.255h3.18v-2.255ZM9.65 59.194v-1.99h2.915v1.99H9.651ZM48.482 15.692v5.969h2.253v-5.969h-2.253Zm2.12 5.836h-1.987v-5.703h1.987v5.703ZM12.699 10.52h-3.18v2.255h3.18V10.52ZM9.65 12.642v-1.99h2.915v1.99H9.651ZM30.59 57.072H23.7v2.255h6.891v-2.255Zm-6.759 2.122v-1.99h6.627v1.99H23.83ZM29.663 10.52h-5.964v2.255h5.964V10.52Zm-5.832 2.122v-1.99h5.7v1.99h-5.7ZM22.241 48.982h-7.952v10.345h7.952V48.982Zm-7.82 10.212v-10.08h7.688v10.08h-7.687Z" clip-rule="evenodd"/><path fill="#29313C" fill-rule="evenodd" d="M17.867 56.94H14.82v1.989h3.048v-1.99Zm-.132 1.856h-2.783v-1.724h2.783v1.724ZM21.578 56.94H18.53v1.989h3.048v-1.99Zm-2.915 1.856v-1.724h2.783v1.724h-2.783ZM22.241 48.982h-7.952v7.294h7.952v-7.294Zm-7.82 7.162v-7.03h7.688v7.03h-7.687Z" clip-rule="evenodd"/><path fill="#29313C" fill-rule="evenodd" d="M22.241 48.982h-7.952v5.968h7.952v-5.968Zm-7.82 5.835v-5.703h7.688v5.703h-7.687ZM22.241 20.865h-7.952V10.52h7.952v10.345Zm-7.82-10.212v10.08h7.688v-10.08h-7.687Z" clip-rule="evenodd"/><path fill="#29313C" fill-rule="evenodd" d="M17.867 12.907H14.82v-1.99h3.048v1.99Zm-2.915-1.857v1.725h2.783V11.05h-2.783ZM21.578 12.907H18.53v-1.99h3.048v1.99Zm-2.915-1.857v1.725h2.783V11.05h-2.783ZM22.241 20.865h-7.952V13.57h7.952v7.295Zm-7.82-7.162v7.03h7.688v-7.03h-7.687Z" clip-rule="evenodd"/><path fill="#29313C" fill-rule="evenodd" d="M22.241 20.865h-7.952v-5.968h7.952v5.968Zm-7.82-5.836v5.703h7.688V15.03h-7.687ZM40.398 26.833V22.59h10.337v4.244H40.398Zm10.204-4.111H40.53V26.7h10.072v-3.98Z" clip-rule="evenodd"/><path fill="#29313C" fill-rule="evenodd" d="M48.35 26.17v-3.05h1.987v3.05H48.35Zm1.855-2.918h-1.723v2.785h1.723v-2.785ZM40.398 26.833V22.59h7.289v4.244h-7.29Zm7.156-4.111H40.53V26.7h7.024v-3.98Z" clip-rule="evenodd"/><path fill="#29313C" fill-rule="evenodd" d="M40.398 26.833V22.59h5.963v4.244h-5.963Zm5.83-4.111H40.53V26.7h5.699v-3.98ZM40.398 14.764V10.52h10.337v4.244H40.398Zm10.204-4.111H40.53v3.978h10.072v-3.978Z" clip-rule="evenodd"/><path fill="#29313C" fill-rule="evenodd" d="M48.35 14.1v-3.05h1.987v3.05H48.35Zm1.855-2.917h-1.723v2.785h1.723v-2.785ZM40.398 14.764V10.52h7.289v4.244h-7.29Zm7.156-4.111H40.53v3.978h7.024v-3.978Z" clip-rule="evenodd"/><path fill="#29313C" fill-rule="evenodd" d="M40.398 14.764V10.52h5.963v4.244h-5.963Zm5.83-4.111H40.53v3.978h5.699v-3.978ZM33.639 10.52h-3.314v8.62h3.314v-8.62Zm-3.181 8.488v-8.355h3.048v8.355h-3.048ZM14.883 42.475h-2.12v1.871h2.12v-1.871Zm-.132 1.739h-1.855v-1.606h1.855v1.606Z" clip-rule="evenodd"/><path fill="#29313C" fill-rule="evenodd" d="M18.072 42.615v-3.316H9.457v3.316h8.615Zm-8.482-.133v-3.05h8.35v3.05H9.59ZM71.012 36.382H58.687v3.183h12.325v-3.183Zm-12.193 3.05v-2.917h12.06v2.918H58.82Z" clip-rule="evenodd"/></svg>