<svg xmlns="http://www.w3.org/2000/svg" viewBox="0 0 800 600"><defs><style>.wall{fill:#333}.door-arc,.window{fill:none;stroke:#333;stroke-width:2}.window{fill:#fff;stroke-width:3}.appliance,.furniture{fill:none;stroke:#333;stroke-width:2}</style></defs><path d="M50 50h700v500H50z" class="wall"/><path fill="#fff" d="M65 65h670v470H65z"/><path d="M65 220h400v15H65z" class="wall"/><path d="M180 65h15v170h-15zM195 65h15v170h-15zM210 150h120v15H210zM450 65h15v170h-15z" class="wall"/><path d="M600 50h100v15H600z" class="window"/><path fill="#ccc" d="M605 45h90v5h-90z"/><path d="M650 50v15M500 50h80v15h-80z" class="window"/><path fill="#ccc" d="M505 45h70v5h-70z"/><path d="M540 50v15" class="window"/><path fill="#fff" stroke="#333" stroke-width="2" d="M100 535h50v15h-50z"/><path d="M125 535a25 25 0 0 1-25-25" class="door-arc"/><path fill="#fff" stroke="#333" stroke-width="2" d="M210 120h40v15h-40z"/><path d="M230 135a20 20 0 0 1-20 20" class="door-arc"/><path fill="#fff" stroke="#333" stroke-width="2" d="M400 220h40v15h-40z"/><path d="M420 235a20 20 0 0 1-20 20" class="door-arc"/><path fill="#fff" stroke="#333" stroke-width="2" d="M400 180h50v15h-50z"/><path d="M425 195a25 25 0 0 1 25-25" class="door-arc"/><path d="M80 300h120v30H80zM100 300v30M120 300v30M140 300v30M160 300v30M180 300v30M250 320h80v20h-80zM480 80h25v120h-25z" class="furniture"/><path d="M480 80h120v25H480z" class="furniture"/><circle cx="492" cy="92" r="3" class="appliance"/><circle cx="502" cy="92" r="3" class="appliance"/><circle cx="512" cy="92" r="3" class="appliance"/><circle cx="522" cy="92" r="3" class="appliance"/><path d="M540 85h25v15h-25z" class="furniture"/><circle cx="552" cy="92" r="6" class="appliance"/><path d="M620 80h30v50h-30zM520 140h60v40h-60zM500 145h15v15h-15zM500 160h15v15h-15zM585 145h15v15h-15zM585 160h15v15h-15zM220 70h70v30h-70z" class="furniture"/><ellipse cx="255" cy="85" fill="none" stroke="#333" stroke-width="2" rx="30" ry="12"/><circle cx="300" cy="120" r="12" class="furniture"/><path d="M240 180h18v25h-18z" class="furniture"/><ellipse cx="249" cy="192" fill="none" stroke="#333" stroke-width="2" rx="7" ry="10"/><path d="M280 180h25v25h-25z" class="furniture"/><circle cx="292" cy="192" r="6" class="furniture"/><path d="M500 280h120v80H500z" class="furniture"/><path d="M505 285h110v70H505zM470 300h25v25h-25zM625 300h25v25h-25zM500 400h200v35H500zM525 400v35M550 400v35M575 400v35M600 400v35M625 400v35M650 400v35M675 400v35M660 280h60v30h-60z" class="furniture"/><path d="M640 290h15v15h-15zM480 480h80v35h-80z" class="furniture"/><path d="M485 485h70v25h-70zM580 490h40v25h-40zM650 475h5v35h-5z" class="furniture"/><path d="M645 480h15v25h-15z" class="furniture"/></svg>