<svg xmlns="http://www.w3.org/2000/svg" viewBox="0 0 900 700"><defs><style>.wall{fill:#333}.door-arc,.window{fill:none;stroke:#333;stroke-width:2}.window{fill:#fff;stroke-width:3}.appliance,.furniture{fill:none;stroke:#333;stroke-width:2}</style></defs><path d="M50 50h800v600H50z" class="wall"/><path fill="#fff" d="M65 65h770v570H65z"/><path d="M65 280h770v15H65z" class="wall"/><path d="M200 65h15v230h-15zM215 65h15v150h-15zM230 200h120v15H230zM500 65h15v230h-15zM450 295h15v340h-15z" class="wall"/><path d="M300 50h120v15H300z" class="window"/><path fill="#ccc" d="M305 45h110v5H305z"/><path d="M360 50v15M600 50h100v15H600z" class="window"/><path fill="#ccc" d="M605 45h90v5h-90z"/><path d="M650 50v15M650 635h120v15H650z" class="window"/><path fill="#ccc" d="M655 650h110v5H655z"/><path d="M710 635v15M200 635h100v15H200z" class="window"/><path fill="#ccc" d="M205 650h90v5h-90z"/><path d="M250 635v15" class="window"/><path fill="#fff" stroke="#333" stroke-width="2" d="M120 635h50v15h-50z"/><path d="M145 635a25 25 0 0 0-25-25" class="door-arc"/><path fill="#fff" stroke="#333" stroke-width="2" d="M280 180h40v15h-40z"/><path d="M300 195a20 20 0 0 1-20 20" class="door-arc"/><path fill="#fff" stroke="#333" stroke-width="2" d="M350 265h40v15h-40z"/><path d="M370 280a20 20 0 0 1-20 20" class="door-arc"/><path fill="#fff" stroke="#333" stroke-width="2" d="M450 220h50v15h-50z"/><path d="M475 235a25 25 0 0 1 25-25" class="door-arc"/><path fill="#fff" stroke="#333" stroke-width="2" d="M500 480h40v15h-40z"/><path d="M520 495a20 20 0 0 1-20 20" class="door-arc"/><path fill="#fff" stroke="#333" stroke-width="2" d="M350 500h40v15h-40z"/><path d="M370 515a20 20 0 0 1-20 20" class="door-arc"/><path d="M80 400h150v35H80zM105 400v35M130 400v35M155 400v35M180 400v35M205 400v35M280 450h100v25H280zM400 420h30v50h-30zM240 80h80v35h-80z" class="furniture"/><ellipse cx="280" cy="97" fill="none" stroke="#333" stroke-width="2" rx="35" ry="15"/><circle cx="330" cy="140" r="15" class="furniture"/><path d="M260 220h20v30h-20z" class="furniture"/><ellipse cx="270" cy="235" fill="none" stroke="#333" stroke-width="2" rx="8" ry="12"/><path d="M300 220h30v30h-30z" class="furniture"/><circle cx="315" cy="235" r="8" class="furniture"/><path d="M530 80h30v140h-30z" class="furniture"/><path d="M530 80h140v30H530z" class="furniture"/><path d="M640 80h30v140h-30z" class="furniture"/><circle cx="545" cy="95" r="4" class="appliance"/><circle cx="555" cy="95" r="4" class="appliance"/><circle cx="565" cy="95" r="4" class="appliance"/><circle cx="575" cy="95" r="4" class="appliance"/><path d="M590 85h30v20h-30z" class="furniture"/><circle cx="605" cy="95" r="8" class="appliance"/><path d="M720 80h35v60h-35zM580 160h80v60h-80zM555 170h18v18h-18zM555 192h18v18h-18zM670 170h18v18h-18zM670 192h18v18h-18zM300 120h120v40H300z" class="furniture"/><path d="M305 125h110v30H305zM250 180h35v35h-35zM430 140h35v35h-35zM340 180h50v30h-50zM480 120h8v50h-8z" class="furniture"/><path d="M470 130h28v30h-28zM720 120h100v40H720zM740 120v40M760 120v40M780 120v40M800 120v40M540 350h140v90H540z" class="furniture"/><path d="M545 355h130v80H545zM510 370h25v30h-25zM685 370h25v30h-25zM720 320h100v40H720zM735 320v40M750 320v40M765 320v40M780 320v40M795 320v40M810 320v40M540 480h60v30h-60zM520 490h18v18h-18zM720 480h80v35h-80zM740 480v35M760 480v35M780 480v35M120 520h80v60h-80z" class="furniture"/><path d="M125 525h70v50h-70zM250 350h80v40h-80zM220 365h25v25h-25z" class="furniture"/><circle cx="232" cy="377" r="8" class="furniture"/><path d="M350 320h80v40h-80zM365 320v40M380 320v40M395 320v40M410 320v40M425 320v40M80 460h60v35H80zM95 460v35M110 460v35M125 460v35M280 520h40v40h-40zM330 540h30v30h-30z" class="furniture"/></svg>